<?xml version="1.0" standalone="no"?>
<!DOCTYPE svg PUBLIC "-//W3C//DTD SVG 20010904//EN"
 "http://www.w3.org/TR/2001/REC-SVG-20010904/DTD/svg10.dtd">
<svg version="1.0" xmlns="http://www.w3.org/2000/svg"
 width="128.000000pt" height="128.000000pt" viewBox="0 0 128.000000 128.000000"
 preserveAspectRatio="xMidYMid meet">
<metadata>
Created by potrace 1.14, written by Peter Selinger 2001-2017
</metadata>
<g transform="translate(0.000000,128.000000) scale(0.100000,-0.100000)"
fill="#000000" stroke="none">
<path d="M593 1083 c-37 -17 -57 -53 -57 -100 0 -29 7 -42 37 -68 l37 -32 -28
-40 c-15 -22 -54 -78 -87 -126 -33 -47 -65 -86 -71 -87 -7 0 -62 25 -124 55
-93 46 -111 59 -104 73 4 9 9 33 12 53 3 30 -2 43 -26 70 -26 29 -36 34 -75
33 -50 0 -71 -13 -94 -57 -21 -42 -10 -90 29 -123 28 -23 38 -26 79 -21 l46 6
52 -147 c29 -81 57 -162 64 -179 8 -25 17 -33 37 -34 152 -5 653 0 659 7 5 5
25 56 45 114 20 58 39 112 42 120 3 8 5 15 5 15 -1 0 8 23 18 50 12 31 25 48
33 46 68 -21 119 -5 142 44 20 41 20 58 0 96 -17 34 -75 63 -109 55 -61 -16
-101 -88 -77 -141 11 -23 7 -26 -104 -80 -64 -31 -119 -55 -124 -53 -5 2 -49
59 -98 128 l-88 125 30 20 c37 24 57 78 44 116 -21 61 -89 90 -145 62z"/>
<path d="M324 845 c-13 -31 -24 -60 -24 -65 0 -9 100 -65 104 -58 1 2 17 22
34 44 18 23 32 46 32 52 0 5 -27 26 -61 46 l-60 36 -25 -55z"/>
<path d="M867 861 l-67 -37 36 -52 c19 -29 36 -52 37 -52 12 0 107 52 107 58
0 5 -10 34 -23 65 l-23 56 -67 -38z"/>
<path d="M278 282 c-10 -2 -17 -16 -20 -35 -8 -69 -37 -64 380 -63 l377 1 2
48 c2 42 0 47 -20 48 -105 2 -707 3 -719 1z"/>
</g>
</svg>
